<?xml version="1.0" standalone="no"?>
<!DOCTYPE svg PUBLIC "-//W3C//DTD SVG 20010904//EN"
 "http://www.w3.org/TR/2001/REC-SVG-20010904/DTD/svg10.dtd">
<svg version="1.0" xmlns="http://www.w3.org/2000/svg"
 width="429.000000pt" height="278.000000pt" viewBox="0 0 429.000000 278.000000"
 preserveAspectRatio="xMidYMid meet">

<g transform="translate(0.000000,278.000000) scale(0.100000,-0.100000)"
fill="#000000" stroke="none">
<path d="M1364 2609 c-40 -42 -133 -95 -224 -128 -80 -29 -99 -54 -44 -59 19
-2 45 5 65 17 42 26 69 27 69 3 0 -52 120 -478 143 -509 15 -21 50 -15 80 12
33 31 34 57 6 127 -12 29 -30 78 -39 108 -10 30 -43 116 -74 190 l-56 135 27
20 c48 35 93 83 93 99 0 24 -13 20 -46 -15z"/>
<path d="M1762 2516 c-30 -66 -82 -426 -69 -478 9 -34 43 -45 157 -53 76 -5
99 -3 115 9 24 17 22 18 -82 37 -82 14 -79 8 -59 109 l12 65 66 -3 c48 -2 68
1 77 12 21 26 3 36 -65 36 -45 0 -64 4 -64 13 1 6 11 59 24 117 l22 105 79 5
c77 5 105 20 68 35 -10 4 -74 10 -143 12 l-126 5 -12 -26z"/>
<path d="M2381 2332 c-46 -70 -257 -427 -264 -445 -22 -58 72 -81 119 -30 14
15 48 67 76 115 28 49 55 91 61 95 5 3 45 5 88 4 96 -3 140 15 177 72 46 69
26 144 -46 174 -34 14 -39 14 -79 -6 -53 -25 -53 -25 -53 -3 0 22 -27 62 -43
62 -7 0 -23 -17 -36 -38z m187 -80 c4 -29 -40 -105 -77 -131 -30 -21 -76 -28
-85 -12 -7 11 47 97 87 139 36 38 70 40 75 4z"/>
<path d="M692 2203 c-38 -39 -81 -89 -96 -112 l-28 -40 36 -53 c43 -65 249
-278 295 -306 30 -18 37 -19 60 -7 29 15 144 140 154 168 15 41 -7 35 -65 -18
-34 -30 -64 -55 -68 -55 -4 0 -30 27 -59 59 l-51 60 40 46 c39 45 53 95 27 95
-7 0 -30 -23 -51 -50 -21 -28 -42 -49 -46 -48 -13 5 -150 172 -150 184 0 6 12
21 26 35 42 39 68 89 55 102 -9 9 -28 -6 -79 -60z"/>
<path d="M2770 1892 c-84 -43 -233 -138 -297 -189 -29 -23 -43 -42 -43 -58 0
-23 0 -23 -51 10 -68 46 -118 58 -209 52 -66 -5 -89 -13 -188 -63 -129 -65
-165 -68 -228 -17 -149 120 -356 189 -499 165 -252 -42 -393 -265 -396 -627
-1 -139 11 -218 51 -327 112 -305 332 -432 605 -347 80 24 158 75 276 181 127
113 139 116 260 79 126 -38 182 -45 247 -28 l52 14 0 -28 c0 -33 9 -59 21 -59
5 0 9 12 9 28 0 35 23 68 60 87 45 23 286 17 278 -6 -2 -5 -43 -50 -93 -99
-110 -111 -179 -150 -267 -150 -66 0 -98 21 -98 66 0 14 -4 23 -10 19 -14 -9
-12 -41 5 -74 30 -60 138 -71 232 -25 55 27 163 124 240 218 l41 49 56 -7 56
-7 -7 -74 c-12 -148 42 -183 158 -99 44 32 102 100 168 197 27 40 37 47 65 47
59 0 62 -21 13 -81 -82 -101 -99 -164 -52 -195 35 -23 83 -4 154 62 l59 54 -6
-45 c-3 -28 0 -50 8 -60 20 -24 72 -18 122 14 45 29 134 128 123 139 -2 3 -32
-23 -66 -57 -68 -69 -108 -94 -129 -81 -20 13 -7 79 34 164 32 67 40 76 69 80
17 3 49 8 70 11 61 10 45 28 -18 20 -30 -3 -55 -4 -55 0 0 13 40 82 54 94 18
15 21 47 6 56 -22 14 -48 -8 -79 -68 -42 -78 -48 -85 -73 -89 -25 -4 -37 -28
-14 -28 27 0 18 -22 -37 -94 -57 -76 -130 -142 -162 -148 -49 -8 -20 84 59
188 63 84 62 88 -19 85 -62 -2 -72 10 -46 53 32 51 23 61 -25 30 -48 -31 -79
-75 -63 -91 14 -14 1 -39 -66 -128 -67 -89 -137 -144 -182 -145 -29 0 -36 37
-23 115 5 33 10 61 10 63 0 1 16 2 35 2 58 0 130 38 110 58 -3 3 -9 1 -13 -5
-16 -25 -122 -47 -122 -25 0 25 67 200 106 280 26 51 44 96 41 99 -20 20 -64
-18 -165 -144 -61 -76 -124 -154 -140 -173 l-29 -34 -104 17 c-57 10 -123 17
-146 17 l-42 0 27 52 c15 29 36 98 48 157 l20 106 235 27 c128 15 377 43 552
62 l318 35 36 -25 c20 -13 44 -24 55 -24 11 0 23 -11 28 -25 13 -35 38 -31 48
8 l8 32 7 -27 c10 -37 47 -39 47 -3 0 31 12 32 25 4 16 -36 33 -28 49 24 4 12
16 17 45 17 54 0 71 8 71 34 0 12 11 38 25 58 34 50 32 80 -10 127 -19 21 -35
48 -35 61 0 20 -3 21 -42 15 -24 -3 -50 -8 -58 -11 -9 -2 -22 9 -33 27 -13 23
-22 29 -35 24 -9 -4 -42 -9 -72 -11 -71 -5 -80 -9 -80 -34 0 -11 -5 -20 -11
-20 -6 0 -28 -18 -50 -40 -24 -24 -49 -40 -63 -40 -13 0 -261 -20 -550 -45
-290 -25 -529 -45 -530 -45 -2 0 -12 35 -21 78 -10 42 -21 85 -26 95 -17 31
-2 18 25 -23 27 -41 72 -77 82 -67 4 3 -12 38 -35 77 -22 40 -41 75 -41 78 0
4 31 23 69 43 l69 37 50 -55 c46 -51 72 -61 72 -29 0 7 -16 31 -35 53 -19 23
-35 46 -35 51 0 5 47 34 105 65 101 52 106 54 116 35 18 -34 81 -98 95 -98 22
0 16 22 -22 80 -54 82 -123 160 -143 160 -9 0 -50 -17 -91 -38z m-1275 -162
c88 -29 120 -46 260 -144 35 -24 47 -27 100 -24 48 3 72 11 120 41 159 98 302
100 409 6 61 -53 83 -100 99 -201 l13 -82 49 2 c56 3 603 44 909 68 109 8 199
14 201 12 1 -2 5 -24 7 -50 4 -32 2 -48 -6 -48 -6 -1 -265 -29 -576 -63 l-565
-63 -6 -89 c-10 -132 -50 -228 -121 -289 -77 -66 -176 -74 -320 -26 -145 49
-154 46 -300 -87 -158 -143 -281 -198 -431 -191 -159 7 -276 95 -361 271 -70
145 -81 195 -80 387 1 178 17 263 68 376 27 59 100 143 153 175 95 59 232 65
378 19z m2561 -265 c24 -25 44 -51 44 -59 0 -8 -11 -28 -25 -44 -14 -17 -25
-39 -25 -50 0 -11 -6 -22 -13 -25 -7 -3 -79 -11 -160 -18 -134 -12 -149 -11
-164 4 -33 33 -33 161 1 195 13 13 154 34 274 41 15 1 38 -15 68 -44z m-1123
-562 l-43 -128 -48 3 c-26 2 -48 5 -50 7 -2 2 24 38 57 80 33 41 74 96 91 120
17 25 32 45 34 45 2 0 -17 -57 -41 -127z"/>
<path d="M1901 1423 c-7 -16 -13 -30 -13 -33 -1 -3 -8 -11 -17 -19 -11 -9 -9
-9 9 1 13 8 30 29 37 47 16 38 1 42 -16 4z"/>
<path d="M2002 1443 c-22 -4 -23 -8 -17 -41 4 -20 8 -43 8 -49 0 -7 8 -13 18
-13 10 0 20 -4 24 -10 3 -5 14 -1 25 10 24 24 50 26 50 4 0 -13 -3 -14 -13 -5
-19 15 -27 4 -27 -41 0 -30 -4 -38 -18 -38 -10 0 -23 5 -30 12 -9 9 -12 9 -12
0 0 -7 -5 -12 -11 -12 -6 0 -9 7 -6 14 4 10 1 13 -9 9 -7 -3 -14 -16 -14 -30
0 -13 -3 -22 -7 -20 -5 3 -17 1 -28 -4 -19 -7 -19 -8 1 -8 12 -1 24 -8 28 -16
14 -36 -59 -175 -91 -175 -7 0 -26 -14 -43 -30 -26 -26 -38 -30 -84 -30 -101
0 -236 56 -236 97 0 8 -8 25 -17 40 -12 18 -18 51 -20 112 -5 183 -4 178 -33
178 -19 0 -35 -13 -63 -51 -26 -35 -34 -53 -26 -61 7 -7 16 -3 29 13 19 23 40
29 40 11 0 -6 6 -9 14 -6 8 3 20 -1 27 -9 7 -8 8 -14 3 -13 -5 1 -20 0 -34 -1
-17 -2 -20 -4 -8 -7 10 -2 15 -10 11 -19 -3 -8 0 -14 6 -14 6 0 11 -5 11 -11
0 -5 -5 -7 -12 -3 -7 5 -9 2 -5 -9 3 -9 0 -18 -9 -21 -8 -3 -12 -2 -9 3 3 5 1
12 -5 16 -5 3 -10 1 -10 -4 0 -6 -7 -11 -15 -11 -18 0 -20 17 -2 23 18 6 4 17
-26 19 -29 3 -27 10 5 15 11 2 27 11 34 21 18 24 8 29 -16 7 -16 -15 -22 -16
-35 -5 -14 11 -22 7 -58 -28 -23 -23 -53 -51 -67 -62 l-25 -21 121 6 121 7 6
-31 c10 -50 57 -140 81 -156 44 -29 148 -55 222 -55 65 0 76 3 96 24 13 14 36
30 51 36 16 5 31 19 34 30 3 11 9 20 14 20 12 0 59 95 59 118 0 11 -7 25 -15
32 -23 19 -18 27 18 28 91 1 426 24 451 30 28 7 25 9 -45 36 -83 33 -235 104
-291 138 -21 12 -41 19 -45 15 -10 -10 48 -67 61 -60 6 3 8 3 4 -2 -5 -5 21
-28 57 -52 51 -34 78 -45 131 -52 36 -6 69 -13 73 -17 11 -11 -143 8 -170 22
-15 7 -30 10 -34 6 -5 -4 -5 -2 -2 4 4 6 -3 20 -14 30 -17 16 -22 16 -31 4 -8
-12 -9 -12 -4 3 4 12 -2 21 -17 28 -12 6 -35 28 -52 49 -16 22 -34 39 -40 38
-5 0 -21 -3 -33 -5z m45 -78 c8 -23 -4 -30 -22 -12 -19 20 -19 27 0 27 9 0 18
-7 22 -15z m75 -77 c-5 -5 -8 2 -7 19 3 43 8 51 12 19 3 -16 0 -33 -5 -38z
m-22 24 c0 -15 -2 -15 -10 -2 -13 20 -13 33 0 25 6 -3 10 -14 10 -23z"/>
<path d="M1846 1407 c-33 -28 -35 -33 -17 -34 11 -1 23 2 26 8 3 5 -2 6 -12 3
-10 -4 -2 7 17 24 47 42 35 41 -14 -1z"/>
<path d="M1932 1415 c-17 -36 -15 -48 6 -41 14 5 14 4 -2 -9 -14 -11 -16 -15
-5 -15 31 0 42 17 35 54 -8 42 -18 46 -34 11z"/>
<path d="M1530 1411 c0 -18 49 -63 61 -56 6 4 9 8 7 9 -2 0 -18 14 -36 30 -17
17 -32 24 -32 17z"/>
<path d="M1497 1397 c-3 -8 -2 -38 1 -68 l7 -54 63 -8 c51 -6 66 -5 78 8 18
18 20 18 43 6 14 -8 17 -6 16 7 -1 9 -7 27 -13 39 -15 27 -6 53 18 53 22 0 30
-22 26 -72 -3 -33 -1 -35 15 -25 15 9 23 9 37 0 20 -14 69 -37 100 -47 17 -6
22 -3 22 10 0 30 -49 83 -98 105 -26 12 -56 30 -67 40 -26 23 -75 13 -90 -19
-5 -12 -17 -24 -25 -27 -9 -3 -24 -19 -33 -35 -14 -24 -24 -30 -47 -28 -29 2
-29 2 -10 20 25 23 25 20 -6 65 -32 48 -31 46 -37 30z m51 -71 c-2 -1 -12 -8
-23 -16 -18 -14 -19 -13 -8 1 7 9 10 19 6 23 -4 4 1 4 10 0 10 -3 17 -7 15 -8z"/>
<path d="M1586 1395 c10 -8 23 -15 28 -15 6 0 1 7 -10 15 -10 8 -23 15 -28 15
-6 0 -1 -7 10 -15z"/>
<path d="M1300 1343 c-41 -30 -124 -84 -185 -120 -60 -36 -112 -67 -115 -70
-14 -13 156 12 173 26 57 45 180 169 192 194 7 15 13 27 12 26 -1 0 -36 -25
-77 -56z"/>
<path d="M1585 1226 c93 -47 95 -49 95 -104 1 -43 2 -46 15 -28 8 11 15 32 15
47 0 33 37 48 93 39 49 -9 101 1 105 20 2 10 -17 22 -57 36 -65 22 -91 16 -91
-25 0 -17 -6 -21 -34 -21 -24 0 -36 5 -40 18 -9 27 -36 39 -106 46 l-65 7 70
-35z"/>
<path d="M1533 1181 c-14 -11 2 -81 19 -81 5 0 6 5 2 11 -5 8 -1 8 14 0 29
-16 35 -14 29 9 -3 10 0 21 7 23 8 3 8 8 -1 19 -7 8 -11 17 -8 20 7 7 -53 6
-62 -1z"/>
<path d="M1855 1156 c-28 -34 -31 -50 -14 -67 15 -15 22 -16 43 -6 14 7 26 18
26 25 0 6 6 12 13 13 6 0 2 4 -10 9 -13 5 -23 14 -23 19 0 15 -24 20 -35 7z"/>
<path d="M1688 1063 c8 -3 5 -11 -10 -25 l-23 -19 28 4 c20 3 25 1 18 -6 -6
-6 -11 -14 -11 -17 0 -12 35 -7 48 7 7 7 9 13 4 13 -5 0 -7 11 -4 25 4 23 1
25 -29 24 -19 0 -28 -3 -21 -6z"/>
<path d="M2278 1010 c-16 -36 -32 -40 -26 -5 3 14 2 25 -3 25 -13 0 -16 -13
-10 -43 l6 -29 26 21 c15 11 29 17 33 14 3 -3 6 6 6 20 0 36 -15 34 -32 -3z"/>
<path d="M2197 1004 c-3 -3 -4 -11 -1 -18 3 -7 -4 -21 -16 -31 -18 -16 -30 -8
-13 9 11 10 12 36 2 36 -5 0 -11 -11 -15 -25 -6 -23 -7 -24 -19 -8 -12 16 -14
16 -29 1 -9 -9 -16 -21 -16 -27 0 -5 -9 -9 -19 -8 -15 1 -17 4 -9 14 8 10 7
12 -6 7 -19 -7 -20 -23 -3 -46 12 -15 14 -15 25 3 9 13 19 18 32 14 10 -3 21
-1 25 5 4 6 13 9 21 6 7 -3 16 -1 19 4 4 6 15 10 25 10 24 0 33 15 25 40 -6
20 -16 25 -28 14z"/>
<path d="M1195 981 c-6 -10 25 -31 44 -31 17 0 13 27 -5 34 -22 8 -32 8 -39
-3z"/>
<path d="M1931 954 c2 -7 39 -44 82 -84 l77 -72 63 25 c63 25 184 54 246 59
20 2 37 9 39 18 4 12 2 13 -9 4 -8 -6 -36 -12 -64 -13 -66 -3 -105 -9 -130
-21 -11 -5 -48 -20 -82 -33 l-61 -24 -34 30 c-18 17 -55 51 -82 76 -27 25 -47
41 -45 35z"/>
<path d="M1342 929 c2 -6 43 -23 91 -39 132 -42 128 -39 82 -61 -22 -10 -29
-16 -15 -13 14 3 35 12 47 20 12 8 36 12 55 9 l33 -5 -32 12 c-18 6 -33 15
-33 19 0 5 -9 9 -19 9 -11 0 -58 14 -104 30 -93 33 -111 36 -105 19z"/>
<path d="M1195 870 c-12 -20 6 -50 30 -50 30 0 39 24 16 44 -20 18 -37 20 -46
6z"/>
<path d="M1177 778 c-8 -27 8 -47 24 -31 13 13 9 45 -7 50 -6 2 -14 -6 -17
-19z"/>
<path d="M1545 727 c19 -15 19 -18 4 -44 -9 -15 -21 -27 -28 -25 -7 1 -10 -2
-6 -8 6 -10 -7 -16 -85 -46 -22 -8 -28 -13 -15 -13 34 -1 129 53 145 82 16 29
7 57 -21 65 -8 2 -5 -3 6 -11z"/>
<path d="M1192 678 c2 -12 10 -23 18 -23 22 0 19 39 -3 43 -15 3 -18 -1 -15
-20z"/>
<path d="M1353 673 c-7 -2 -13 -10 -13 -16 0 -18 31 -46 46 -40 17 6 18 35 2
51 -13 13 -16 13 -35 5z"/>
<path d="M1260 641 c0 -22 37 -38 52 -23 17 17 1 42 -27 42 -18 0 -25 -5 -25
-19z"/>
<path d="M1204 606 c11 -9 24 -16 30 -16 12 0 7 5 -24 19 -24 11 -24 11 -6 -3z"/>
<path d="M1263 583 c9 -2 25 -2 35 0 9 3 1 5 -18 5 -19 0 -27 -2 -17 -5z"/>
<path d="M1353 583 c9 -2 23 -2 30 0 6 3 -1 5 -18 5 -16 0 -22 -2 -12 -5z"/>
<path d="M276 1676 c-14 -14 -26 -32 -26 -41 0 -27 56 -99 119 -155 34 -28 58
-56 55 -61 -3 -5 -31 -9 -62 -9 -62 0 -129 -13 -144 -28 -5 -5 -11 -25 -15
-45 -5 -33 -3 -37 38 -63 24 -15 105 -54 179 -85 74 -31 165 -71 203 -88 73
-33 90 -57 32 -48 -38 6 -53 -6 -35 -28 22 -27 79 -18 111 16 24 25 29 40 29
80 0 43 -4 51 -34 74 -39 29 -283 126 -366 145 -85 19 -89 23 -30 31 119 15
162 11 210 -21 25 -16 52 -30 61 -30 25 0 42 27 35 54 -7 29 -50 46 -112 46
-37 0 -51 7 -101 49 -32 26 -69 60 -82 75 -21 23 -22 26 -7 26 10 0 57 -17
105 -39 97 -43 233 -87 302 -96 60 -9 105 13 125 61 17 40 11 74 -13 74 -10 0
-14 -6 -10 -20 4 -15 0 -20 -16 -20 -33 0 -118 25 -157 45 -51 26 -299 117
-337 122 -25 4 -38 -1 -57 -21z m323 -305 c10 -6 10 -10 1 -16 -7 -4 -19 0
-28 9 -14 13 -14 16 -2 16 8 0 21 -4 29 -9z"/>
<path d="M435 885 c-101 -28 -127 -42 -192 -100 -37 -33 -54 -56 -59 -81 -8
-45 0 -53 29 -27 34 32 98 61 228 104 95 31 136 39 205 41 72 3 88 0 97 -14
17 -26 -13 -51 -106 -87 -121 -45 -240 -72 -347 -78 -52 -3 -97 -7 -99 -9 -9
-9 11 -54 38 -81 36 -38 112 -57 191 -47 102 12 233 60 296 109 76 59 96 95
88 155 -9 62 -19 77 -72 111 -42 26 -53 29 -131 28 -57 0 -113 -8 -166 -24z"/>
<path d="M1742 464 c-26 -18 -29 -65 -7 -104 19 -33 18 -40 -2 -40 -72 0 -143
-49 -143 -98 0 -61 66 -87 174 -70 92 14 176 68 176 112 0 17 -5 15 -30 -15
-37 -46 -113 -79 -198 -86 -60 -5 -69 -3 -87 17 -18 19 -18 24 -5 47 26 45 65
66 130 71 33 2 60 8 60 13 0 5 -6 9 -14 9 -23 0 -46 41 -46 81 0 72 62 81 95
14 11 -22 21 -42 23 -44 1 -3 7 0 12 5 16 16 -1 51 -40 79 -39 29 -66 32 -98
9z"/>
<path d="M2202 455 c-16 -13 -42 -49 -57 -78 -23 -44 -32 -53 -50 -49 -30 5
-96 -30 -129 -68 -29 -35 -32 -50 -14 -68 22 -22 52 -12 96 30 38 37 43 39 36
18 -5 -14 -9 -45 -9 -70 0 -36 4 -45 19 -48 10 -2 23 1 30 8 8 8 7 10 -6 5
-28 -11 -32 20 -14 88 16 57 23 67 81 114 65 54 101 104 91 129 -8 21 -41 17
-74 -11z m57 -16 c-16 -30 -79 -98 -102 -111 -18 -9 -18 -7 4 31 27 49 88 113
100 105 5 -3 4 -14 -2 -25z m-158 -148 c-12 -21 -108 -101 -122 -101 -15 0
-10 34 9 58 25 32 73 62 100 62 19 0 21 -3 13 -19z"/>
<path d="M2816 360 c-14 -22 -30 -40 -35 -40 -5 0 -7 -8 -4 -18 2 -11 -11 -35
-37 -65 -61 -69 -103 -60 -65 14 28 54 4 52 -55 -5 -77 -73 -112 -77 -70 -8
24 39 75 72 113 72 16 0 26 4 22 10 -18 29 -100 -7 -160 -70 -63 -66 -135 -91
-135 -46 0 44 83 123 100 96 6 -9 9 -9 15 0 11 18 -11 33 -38 26 -14 -3 -46
-25 -72 -49 -47 -42 -48 -44 -34 -72 18 -39 65 -45 113 -16 30 19 35 19 46 6
20 -24 54 -18 86 16 l29 31 5 -34 c6 -42 26 -46 72 -14 l37 25 3 -22 c5 -35
41 -33 84 5 21 18 34 27 30 20 -12 -19 3 -52 24 -52 10 0 33 12 50 26 31 27
31 27 37 5 7 -29 47 -37 79 -16 14 9 28 14 31 11 3 -3 18 1 34 10 28 14 29 14
19 -11 -15 -40 1 -30 62 37 58 65 81 73 53 18 -39 -76 8 -105 74 -44 23 20 41
40 41 44 0 4 -16 -8 -36 -26 -62 -59 -85 -34 -44 47 12 22 18 44 15 49 -10 15
-60 -15 -94 -57 -35 -42 -38 -39 -16 14 18 43 18 43 1 43 -8 0 -19 -14 -25
-32 -6 -18 -21 -42 -33 -55 -26 -28 -54 -31 -43 -5 15 34 17 62 6 62 -6 0 -11
-6 -11 -13 0 -24 -31 -77 -51 -88 -42 -22 -52 22 -19 76 22 35 45 49 62 39 6
-4 9 -1 6 7 -9 28 -39 20 -73 -18 -72 -80 -97 -103 -111 -103 -19 0 -17 27 6
79 24 52 24 51 6 51 -8 0 -18 -10 -21 -21 -9 -29 -84 -109 -101 -109 -20 0
-17 35 6 80 15 30 26 40 45 40 13 0 27 5 30 10 4 7 -2 9 -19 4 -31 -7 -32 2
-6 36 23 30 25 40 6 40 -7 0 -25 -18 -40 -40z"/>
<path d="M2925 370 c-17 -18 -17 -20 -1 -20 9 0 19 7 23 15 9 25 -2 27 -22 5z"/>
<path d="M2258 269 c-35 -54 -79 -91 -94 -76 -11 11 5 55 32 86 25 30 25 31 5
31 -27 0 -65 -72 -57 -106 9 -35 59 -33 83 3 l18 27 5 -29 c7 -40 39 -44 76
-11 16 14 24 26 18 26 -6 0 -17 -7 -24 -15 -38 -45 -55 17 -20 70 23 34 26 55
8 55 -7 -1 -30 -28 -50 -61z"/>
</g>
</svg>
